PathFileType	4	(x/y/z)	S02_M20_T05
DataRate	CameraRate	NumFrames	NumMarkers	Units	OrigDataRate	OrigDataStartFrame	OrigNumFrames
240	240	8	51	mm	240	58	459
Frame#	Time	Sternum			R.Acromium			L.Acromium			Top.Head			R.ASIS			L.ASIS			R.PSIS			L.PSIS			R.Great.Tro			L.Great.Tro			R.Iliac.Crest			L.Iliac.Crest			V.Sacral			R.Thigh.Upper.Post			R.Thigh.Lower.Ant			R.Thigh.Lower.Post			R.Thigh.Upper.Ant			R.Knee.Lat			R.Knee.Med			R.Shank.Upper.Post			R.Shank.Lower.Ant			R.Shank.Lower.Post			R.Shank.Upper.Ant			R.Ankle.Lat			R.Ankle.Med			R.Heel.Upper			R.Heel.Med			R.Heel.Lat			R.Toe.Lat			R.Toe.Med			R.Toe.Tip			L.Thigh.Upper.Post			L.Thigh.Lower.Ant			L.Thigh.Lower.Post			L.Thigh.Upper.Ant			L.Knee.Lat			L.Knee.Med			L.Shank.Upper.Post			L.Shank.Lower.Ant			L.Shank.Lower.Post			L.Shank.Upper.Ant			L.Ankle.Lat			L.Ankle.Med			L.Heel.Upper			L.Heel.Med			L.Heel.Lat			L.Toe.Lat			L.Toe.Med			L.Toe.Tip			Cervical.Spine			Back			
		X1	Y1	Z1	X2	Y2	Z2	X3	Y3	Z3	X4	Y4	Z4	X5	Y5	Z5	X6	Y6	Z6	X7	Y7	Z7	X8	Y8	Z8	X9	Y9	Z9	X10	Y10	Z10	X11	Y11	Z11	X12	Y12	Z12	X13	Y13	Z13	X14	Y14	Z14	X15	Y15	Z15	X16	Y16	Z16	X17	Y17	Z17	X18	Y18	Z18	X19	Y19	Z19	X20	Y20	Z20	X21	Y21	Z21	X22	Y22	Z22	X23	Y23	Z23	X24	Y24	Z24	X25	Y25	Z25	X26	Y26	Z26	X27	Y27	Z27	X28	Y28	Z28	X29	Y29	Z29	X30	Y30	Z30	X31	Y31	Z31	X32	Y32	Z32	X33	Y33	Z33	X34	Y34	Z34	X35	Y35	Z35	X36	Y36	Z36	X37	Y37	Z37	X38	Y38	Z38	X39	Y39	Z39	X40	Y40	Z40	X41	Y41	Z41	X42	Y42	Z42	X43	Y43	Z43	X44	Y44	Z44	X45	Y45	Z45	X46	Y46	Z46	X47	Y47	Z47	X48	Y48	Z48	X49	Y49	Z49	X50	Y50	Z50	X51	Y51	Z51	

58	0.2375	-1194.8	1101.7	297.45	-1314.1	1347.1	423.72	-1292.5	1332	129.33	-1260	1621	244.35	-1234.8	920.29	411.63	-1206	916.81	197.04	-1442.9	957.46	330.26	-1445.9	968.16	256.03	-1328.5	804.01	493.96	-1320.4	837.48	99.415	-1355.2	974.91	458.18	-1323.5	971.52	118.81	-1468.7	914.78	281.88	-1263.4	615.87	502.17	-1188.7	543.78	486.76	-1257.6	524.69	490.96	-1194.9	633.21	493.46	-1233.5	450.49	487.44	-1212	428.34	345.3	-1413.4	345.82	455.27	-1412.2	236.1	439.83	-1461.1	289.95	443.08	-1368.4	287.39	459.96	-1514.4	207.83	426.57	-1482.4	210.52	345.07	-1555.4	241.05	366.96	-1561.4	212.66	333.89	-1582.5	217.06	395.54	-1483.6	91.219	448.19	-1443.6	74.04	346.04	-1400.1	57.298	407.39	-1316.7	602.66	133.46	-1227.5	537.86	143.11	-1302.9	516.09	159.68	-1250.9	627.19	117.8	-1236.7	454.76	160.71	-1234.1	459.57	296.67	-1317.9	289.09	169.66	-1257.2	197.9	191.68	-1305.7	210.17	187.65	-1260.4	271.15	171.78	-1305.8	97.152	211.03	-1295.4	99.857	294.32	-1369	70.236	250.82	-1360.3	46.584	283.5	-1363.6	42.035	222.88	-1197.9	34.102	192.23	-1176.7	45.707	302.01	-1115.8	58.418	253.63	-1384.6	1402.3	270.39	-1461.1	1151.5	284.97
59	0.24167	-1189.9	1102.9	296.96	-1309.1	1348.1	423.38	-1287.5	1333.2	128.98	-1254.7	1622	243.97	-1229.5	921.63	410.87	-1201.6	917.74	196.2	-1437.7	958.58	330.5	-1441.2	969.21	256.28	-1322	805.5	493.77	-1316.8	838.18	99.304	-1349.4	976.2	457.92	-1319.4	972.31	118.57	-1463.9	915.87	282.36	-1255.3	617.44	501.77	-1179.9	546.29	485.79	-1248.5	526.37	490.24	-1187.2	635.65	492.72	-1223.2	452.4	486.29	-1202.1	430.88	344.28	-1401.7	344.58	454.62	-1398.5	234.74	439.58	-1448.4	287.66	442.66	-1355.7	286.91	459.43	-1500.2	204.69	426.43	-1468.4	207.65	344.86	-1542.4	236.23	366.52	-1547.8	207.28	333.65	-1568.7	211.71	395.34	-1465.9	89.08	448.91	-1425.6	72.155	346.91	-1381.8	57.106	408.52	-1314.5	603.49	133.39	-1225.9	537.93	142.92	-1301.5	516.8	159.58	-1248.6	627.45	117.63	-1235.7	454.9	160.57	-1233	459.79	296.6	-1317.4	289.58	169.63	-1257	198.14	191.54	-1304.8	210.16	187.83	-1260.2	271.35	171.68	-1305.6	97.355	210.99	-1295.2	100.14	294.27	-1368.8	70.447	250.82	-1360.1	46.785	283.52	-1363.6	42.249	222.87	-1197.9	34.07	192.22	-1176.6	45.737	301.94	-1115.7	58.323	253.56	-1379.6	1403.3	270.02	-1456.1	1152.6	284.5
60	0.24583	-1185	1104	296.48	-1303.9	1349.1	423.05	-1282.6	1334.3	128.64	-1249.5	1622.9	243.6	-1224.2	922.93	410.1	-1197.3	918.67	195.35	-1432.5	959.66	330.79	-1436.4	970.22	256.57	-1315.5	806.94	493.58	-1313.3	838.87	99.194	-1343.5	977.43	457.68	-1315.4	973.07	118.35	-1459.2	916.9	282.89	-1247.3	618.96	501.34	-1171.2	548.77	484.78	-1239.6	528.04	489.47	-1179.6	638.05	491.96	-1213.2	454.33	485.1	-1192.4	433.41	343.24	-1390	343.26	453.96	-1384.7	233.35	439.37	-1435.5	285.29	442.24	-1343	286.42	458.95	-1485.9	201.42	426.33	-1454.2	204.68	344.67	-1529.2	231.28	366.14	-1534.1	201.8	333.46	-1554.8	206.24	395.21	-1448.1	86.94	449.65	-1407.6	70.281	347.8	-1363.4	56.933	409.66	-1312.4	604.31	133.35	-1224.4	537.99	142.75	-1300.1	517.52	159.52	-1246.3	627.71	117.47	-1234.8	455.04	160.45	-1231.9	459.99	296.56	-1316.9	290.04	169.65	-1256.8	198.38	191.41	-1304.2	210.26	188.07	-1259.9	271.56	171.6	-1305.5	97.567	210.96	-1295	100.44	294.22	-1368.7	70.674	250.83	-1360	46.994	283.54	-1363.5	42.47	222.88	-1197.8	34.04	192.21	-1176.6	45.77	301.88	-1115.5	58.231	253.49	-1374.5	1404.3	269.65	-1451.2	1153.7	284.04
61	0.25	-1180.2	1105.1	296	-1298.6	1350	422.71	-1277.6	1335.5	128.31	-1244.3	1623.8	243.25	-1218.9	924.19	409.31	-1192.9	919.57	194.48	-1427.4	960.69	331.12	-1431.7	971.16	256.9	-1308.9	808.31	493.39	-1309.7	839.55	99.082	-1337.6	978.6	457.44	-1311.3	973.8	118.14	-1454.4	917.88	283.46	-1239.2	620.43	500.88	-1162.6	551.23	483.73	-1230.7	529.7	488.65	-1172.1	640.43	491.17	-1203.2	456.27	483.88	-1182.8	435.93	342.17	-1378.3	341.86	453.27	-1370.9	231.92	439.2	-1422.6	282.83	441.82	-1330.3	285.9	458.5	-1471.4	198.05	426.26	-1439.8	201.6	344.52	-1515.7	226.19	365.79	-1520.1	196.22	333.33	-1540.7	200.67	395.15	-1430.2	84.81	450.4	-1389.5	68.427	348.71	-1345.1	56.788	410.79	-1310.4	605.13	133.33	-1222.9	538.04	142.6	-1298.7	518.22	159.49	-1244	627.95	117.33	-1233.9	455.18	160.34	-1230.9	460.2	296.55	-1316.6	290.47	169.75	-1256.7	198.63	191.29	-1303.9	210.46	188.37	-1259.7	271.78	171.52	-1305.3	97.79	210.94	-1294.8	100.74	294.18	-1368.5	70.918	250.83	-1359.8	47.211	283.57	-1363.4	42.698	222.88	-1197.8	34.011	192.2	-1176.5	45.807	301.81	-1115.4	58.141	253.42	-1369.5	1405.2	269.29	-1446.3	1154.7	283.6
62	0.25417	-1175.3	1106.2	295.52	-1293.3	1350.9	422.39	-1272.7	1336.6	127.98	-1239.1	1624.7	242.9	-1213.6	925.41	408.51	-1188.6	920.45	193.6	-1422.2	961.68	331.5	-1427.1	972.05	257.27	-1302.1	809.62	493.19	-1306.1	840.2	98.969	-1331.6	979.72	457.2	-1307.3	974.49	117.95	-1449.7	918.79	284.07	-1231.3	621.86	500.38	-1154.1	553.65	482.63	-1222	531.34	487.8	-1164.6	642.76	490.37	-1193.4	458.21	482.63	-1173.3	438.42	341.06	-1366.7	340.38	452.56	-1357	230.47	439.07	-1409.7	280.3	441.41	-1317.6	285.36	458.08	-1456.6	194.57	426.21	-1425.3	198.43	344.4	-1502	220.99	365.49	-1506	190.57	333.24	-1526.5	195.02	395.14	-1412.3	82.696	451.17	-1371.2	66.603	349.62	-1326.6	56.677	411.92	-1308.3	605.93	133.34	-1221.4	538.08	142.46	-1297.3	518.92	159.49	-1241.8	628.17	117.19	-1233	455.32	160.24	-1230	460.39	296.56	-1316.3	290.86	169.91	-1256.5	198.88	191.18	-1304.1	210.77	188.76	-1259.4	272	171.47	-1305.1	98.022	210.92	-1294.6	101.05	294.14	-1368.4	71.178	250.84	-1359.6	47.438	283.61	-1363.3	42.934	222.9	-1197.8	33.984	192.19	-1176.4	45.848	301.74	-1115.3	58.053	253.35	-1364.5	1406.1	268.94	-1441.4	1155.6	283.17
63	0.25833	-1170.5	1107.2	295.04	-1287.9	1351.6	422.07	-1267.7	1337.7	127.66	-1233.9	1625.5	242.57	-1208.3	926.58	407.69	-1184.3	921.31	192.72	-1417.1	962.61	331.91	-1422.4	972.89	257.68	-1295.3	810.86	492.98	-1302.5	840.83	98.852	-1325.5	980.77	456.96	-1303.3	975.14	117.76	-1444.9	919.66	284.72	-1223.3	623.24	499.85	-1145.7	556.03	481.49	-1213.4	532.95	486.91	-1157.2	645.04	489.54	-1183.8	460.16	481.36	-1164	440.88	339.94	-1355.1	338.81	451.84	-1343	228.99	438.98	-1396.6	277.68	441	-1304.8	284.8	457.68	-1441.7	191	426.19	-1410.6	195.19	344.31	-1488.1	215.69	365.22	-1491.6	184.86	333.2	-1512.1	189.31	395.18	-1394.2	80.609	451.94	-1352.9	64.819	350.55	-1308.1	56.611	413.03	-1306.3	606.72	133.37	-1219.9	538.11	142.35	-1295.9	519.62	159.53	-1239.6	628.37	117.07	-1232.2	455.46	160.16	-1229	460.58	296.6	-1316.1	291.22	170.15	-1256.3	199.15	191.07	-1304.7	211.21	189.23	-1259.2	272.23	171.42	-1305	98.264	210.91	-1294.5	101.37	294.11	-1368.3	71.452	250.85	-1359.5	47.674	283.64	-1363.3	43.178	222.92	-1197.7	33.957	192.19	-1176.3	45.893	301.67	-1115.2	57.966	253.28	-1359.4	1406.9	268.59	-1436.5	1156.5	282.76
64	0.2625	-1165.7	1108.2	294.56	-1282.4	1352.4	421.77	-1262.8	1338.7	127.36	-1228.8	1626.3	242.25	-1202.9	927.71	406.87	-1180	922.13	191.83	-1412.1	963.5	332.36	-1417.8	973.67	258.12	-1288.4	812.03	492.76	-1298.9	841.43	98.733	-1319.4	981.75	456.72	-1299.4	975.75	117.6	-1440.1	920.46	285.4	-1215.5	624.58	499.29	-1137.4	558.36	480.3	-1204.9	534.55	485.99	-1149.8	647.27	488.69	-1174.3	462.09	480.07	-1154.9	443.3	338.78	-1343.4	337.15	451.09	-1329	227.5	438.91	-1383.4	275	440.59	-1292.1	284.22	457.31	-1426.6	187.34	426.18	-1395.7	191.87	344.23	-1473.9	210.3	364.98	-1477	179.12	333.2	-1497.6	183.55	395.26	-1376	78.555	452.72	-1334.4	63.085	351.47	-1289.6	56.597	414.13	-1304.3	607.51	133.44	-1218.5	538.13	142.25	-1294.6	520.3	159.6	-1237.5	628.57	116.96	-1231.4	455.6	160.08	-1228	460.75	296.66	-1316	291.54	170.45	-1256.1	199.41	190.98	-1305.7	211.76	189.77	-1259	272.47	171.4	-1304.9	98.515	210.91	-1294.3	101.69	294.09	-1368.2	71.741	250.86	-1359.3	47.921	283.68	-1363.2	43.43	222.95	-1197.7	33.933	192.19	-1176.1	45.943	301.6	-1115.1	57.88	253.21	-1354.4	1407.7	268.26	-1431.6	1157.4	282.36
65	0.26667	-1160.9	1109.2	294.09	-1277	1353	421.47	-1257.9	1339.7	127.05	-1223.7	1627.1	241.95	-1197.6	928.8	406.04	-1175.8	922.91	190.94	-1407	964.33	332.83	-1413.1	974.39	258.59	-1281.4	813.14	492.53	-1295.2	842.01	98.61	-1313.1	982.67	456.47	-1295.4	976.31	117.44	-1435.4	921.2	286.11	-1207.7	625.88	498.68	-1129.2	560.65	479.08	-1196.5	536.11	485.03	-1142.5	649.44	487.82	-1164.9	464.01	478.75	-1145.9	445.68	337.6	-1331.8	335.4	450.34	-1314.8	225.99	438.87	-1370.2	272.25	440.19	-1279.3	283.62	456.95	-1411.3	183.62	426.18	-1380.7	188.49	344.18	-1459.5	204.84	364.76	-1462.1	173.34	333.24	-1482.9	177.76	395.38	-1357.8	76.545	453.49	-1315.8	61.413	352.39	-1271	56.647	415.2	-1302.3	608.29	133.53	-1217	538.14	142.16	-1293.2	520.98	159.7	-1235.3	628.75	116.85	-1230.5	455.74	160.01	-1227.1	460.91	296.74	-1315.9	291.83	170.82	-1255.9	199.69	190.9	-1307	212.42	190.39	-1258.7	272.72	171.39	-1304.8	98.775	210.91	-1294.1	102.02	294.06	-1368	72.041	250.88	-1359.2	48.177	283.73	-1363.1	43.691	222.98	-1197.7	33.909	192.19	-1176	46	301.52	-1115	57.795	253.15	-1349.4	1408.5	267.93	-1426.7	1158.2	281.97
